<?xml version="1.0" encoding="utf-8"?>
<!-- Generator: Adobe Illustrator 18.1.1, SVG Export Plug-In . SVG Version: 6.00 Build 0)  -->
<!DOCTYPE svg PUBLIC "-//W3C//DTD SVG 1.1//EN" "http://www.w3.org/Graphics/SVG/1.1/DTD/svg11.dtd">
<svg version="1.1" id="Lager_1" xmlns="http://www.w3.org/2000/svg" xmlns:xlink="http://www.w3.org/1999/xlink" x="0px" y="0px"
	 viewBox="0 0 841.9 1190.6" enable-background="new 0 0 841.9 1190.6" xml:space="preserve">
<g>
	<path fill="#FFFFFF" stroke="#FFFFFF" stroke-width="2.8346" d="M137.8,650.1c0,29.3-35.4,65.3-81.3,65.3
		c-21.2,0-30.2-6.7-44.7-18.3l5.8-40.4h7c1.7,40.4,15.7,48.2,26.4,49.1c11.6,1.2,23.5-4.1,30.2-13.6c7.8-10.7,9.6-22.3,4.6-31.1
		l-49.6-86.5c-6.7-11.3-9-42.4,12.8-54.9c13.7-7.8,26.4-14.5,45.9-14.5c28.4,0,40.1,4.6,54,22.6l-5.8,38.6h-7l-1.2-22.9
		c-3.2-19.7-15.4-34-31.1-32.2c-7,0.6-12.8,4.6-18,11.3c-2.9,5.2-7,13.1,1.2,26.4l43,71.7C136.7,632.1,137.8,640.6,137.8,650.1z"/>
	<path fill="#FFFFFF" stroke="#FFFFFF" stroke-width="2.8346" d="M138.2,714.4l0.9-6.8c11.3,0,15.7-2.1,15.7-6.8l24-175.7
		c0.6-4.7-0.3-10.1-12.1-10.1h-7.1l1.2-7.7h94.8c31.1,0,63.4,7.7,61.9,55.7c-0.9,29.9-26.4,48.3-38.8,54.5c-9.2,4.7-23.1,9.2-35,9.2
		h-15.4l-10.1,69.9c-0.9,5.9,1.8,11,10.1,11h9.8l-2.1,6.8H138.2z M243.1,515.1l-13.9,103.1l14.5,0.3c5,0,10.1-1.8,11-8.6
		c0.9-4.1,8.9-66.7,11.8-82.6c0-9.2-5-12.1-12.7-12.1H243.1z"/>
	<path fill="#FFFFFF" stroke="#FFFFFF" stroke-width="2.8346" d="M419.4,504.4c31.4,0,63.6,9.6,62.7,57.5c0,0-2.9,46.5-11.9,94.1
		c-6.4,34-26.1,43.5-38.3,49.7c-9.6,4.6-25.6,9-37.7,9h-16c-31.4,0-63.6-9.6-62.7-57.2l12.2-83l1.2-8.4
		c3.2-27.3,25.3-46.5,36.9-52.3c9.6-4.9,25.5-9,37.5-9L419.4,504.4z M384.6,707.6h5.6c5.3,0,10.4-2.1,11.6-8.9
		c0.9-4.1,22.5-155.2,24.6-172.1c0-9.2-5-12.4-13.3-12.4h-5.6c-5.3,0-10.4,1.8-11.3,8.9c-1.2,4.1-21.6,156.1-24.9,172.1
		C369.8,703.2,376.6,707.6,384.6,707.6z"/>
	<path fill="#FFFFFF" stroke="#FFFFFF" stroke-width="2.8346" d="M669.5,714.4h-61.3c-5.9,0-8.6-4.1-8.6-6.8
		c-1.2-3-15.7-78.2-16.9-80.9c-2.1-4.2-1.5-11.9-9.2-11.9h-12.1L551,695.8c-2.1,7.7,1.8,11.8,11,11.8h6.2l-1.5,6.8h-101l0.9-6.8
		h10.1c8,0,11-5,11.9-8l22.8-174.5c0.6-4.7-0.9-10.1-9.8-10.1h-8l1.8-7.7h94.2c32.9,0,70.2,7.7,66.1,45.6
		c-3.8,37.6-41.2,51.5-45.3,52.7c-3.8,1.2-24.6,7.7-27.5,7.7c31.7,6.8,51.8,7.7,56,21.9c5,16,12.4,54.5,12.4,58.4
		c0.9,2.1,5.9,13.9,12.7,13.9h6.8L669.5,714.4z M562.9,607.5h15.7c4.1,0,8.9-0.9,10.1-8.9l9.8-73.5c1.5-10.1-8.9-10.1-22.8-10.1
		L562.9,607.5z"/>
	<path fill="#FFFFFF" stroke="#FFFFFF" stroke-width="2.8346" d="M678.5,707.9h9.2c7.1,0,12.4-3.3,13-7.1l25.2-186.3h-17.2
		c-15.4,0-25.2,20.1-28.4,32.6l-6.5,21h-5.6l9.8-60.7h26.7h132.7l-7.1,60.7h-5.6l-0.6-16c0-17.2-5.3-37.6-23.1-37.6h-13.3
		l-25.2,182.2c-0.9,6.2,1.8,11,10.1,11h8.9l-1.2,6.8H677.6L678.5,707.9z"/>
	<path fill="#ED1C24" d="M137.8,650.1c0,29.3-35.4,65.3-81.3,65.3c-21.2,0-30.2-6.7-44.7-18.3l5.8-40.4h7
		c1.7,40.4,15.7,48.2,26.4,49.1c11.6,1.2,23.5-4.1,30.2-13.6c7.8-10.7,9.6-22.3,4.6-31.1l-49.6-86.5c-6.7-11.3-9-42.4,12.8-54.9
		c13.7-7.8,26.4-14.5,45.9-14.5c28.4,0,40.1,4.6,54,22.6l-5.8,38.6h-7l-1.2-22.9c-3.2-19.7-15.4-34-31.1-32.2
		c-7,0.6-12.8,4.6-18,11.3c-2.9,5.2-7,13.1,1.2,26.4l43,71.7C136.7,632.1,137.8,640.6,137.8,650.1z"/>
	<path fill="#ED1C24" d="M138.2,714.4l0.9-6.8c11.3,0,15.7-2.1,15.7-6.8l24-175.7c0.6-4.7-0.3-10.1-12.1-10.1h-7.1l1.2-7.7h94.8
		c31.1,0,63.4,7.7,61.9,55.7c-0.9,29.9-26.4,48.3-38.8,54.5c-9.2,4.7-23.1,9.2-35,9.2h-15.4l-10.1,69.9c-0.9,5.9,1.8,11,10.1,11h9.8
		l-2.1,6.8H138.2z M243.1,515.1l-13.9,103.1l14.5,0.3c5,0,10.1-1.8,11-8.6c0.9-4.1,8.9-66.7,11.8-82.6c0-9.2-5-12.1-12.7-12.1H243.1
		z"/>
	<path fill="#ED1C24" d="M419.4,504.4c31.4,0,63.6,9.6,62.7,57.5c0,0-2.9,46.5-11.9,94.1c-6.4,34-26.1,43.5-38.3,49.7
		c-9.6,4.6-25.6,9-37.7,9h-16c-31.4,0-63.6-9.6-62.7-57.2l12.2-83l1.2-8.4c3.2-27.3,25.3-46.5,36.9-52.3c9.6-4.9,25.5-9,37.5-9
		L419.4,504.4z M384.6,707.6h5.6c5.3,0,10.4-2.1,11.6-8.9c0.9-4.1,22.5-155.2,24.6-172.1c0-9.2-5-12.4-13.3-12.4h-5.6
		c-5.3,0-10.4,1.8-11.3,8.9c-1.2,4.1-21.6,156.1-24.9,172.1C369.8,703.2,376.6,707.6,384.6,707.6z"/>
	<path fill="#ED1C24" d="M669.5,714.4h-61.3c-5.9,0-8.6-4.1-8.6-6.8c-1.2-3-15.7-78.2-16.9-80.9c-2.1-4.2-1.5-11.9-9.2-11.9h-12.1
		L551,695.8c-2.1,7.7,1.8,11.8,11,11.8h6.2l-1.5,6.8h-101l0.9-6.8h10.1c8,0,11-5,11.9-8l22.8-174.5c0.6-4.7-0.9-10.1-9.8-10.1h-8
		l1.8-7.7h94.2c32.9,0,70.2,7.7,66.1,45.6c-3.8,37.6-41.2,51.5-45.3,52.7c-3.8,1.2-24.6,7.7-27.5,7.7c31.7,6.8,51.8,7.7,56,21.9
		c5,16,12.4,54.5,12.4,58.4c0.9,2.1,5.9,13.9,12.7,13.9h6.8L669.5,714.4z M562.9,607.5h15.7c4.1,0,8.9-0.9,10.1-8.9l9.8-73.5
		c1.5-10.1-8.9-10.1-22.8-10.1L562.9,607.5z"/>
	<path fill="#ED1C24" d="M678.5,707.9h9.2c7.1,0,12.4-3.3,13-7.1l25.2-186.3h-17.2c-15.4,0-25.2,20.1-28.4,32.6l-6.5,21h-5.6
		l9.8-60.7h26.7h132.7l-7.1,60.7h-5.6l-0.6-16c0-17.2-5.3-37.6-23.1-37.6h-13.3l-25.2,182.2c-0.9,6.2,1.8,11,10.1,11h8.9l-1.2,6.8
		H677.6L678.5,707.9z"/>
</g>
<g>
	<g>
		<path fill="#ED1C24" d="M246.8,821.1l0.4-2.5h1.9c4.8,0,4-2.5,3.4-4.4l-4.6-19.4l-14,19.4c-1.9,3.3-1.9,4.4,1.5,4.4h1.8l-0.4,2.5
			h-15.1l0.6-2.5h3.4c2,0,3.7-2.5,5.1-4.4l16-23.3l-9.7-38.8c-0.4-2-1.4-4.5-5.8-4.5h-1.9l0.4-2.9h35.6l-0.4,2.9h-3
			c-2.9,0-2.6,2.5-2.1,4.5l3.7,15l11.1-16.1c1.1-0.8,1.8-3.3-1.2-3.3h-1.4l0.4-2.9h15.1l-0.7,2.9h-2.7c-3.6,0-4.3,2-5.5,3.7
			L265,770.7l10.4,43.5c0.7,2.2,1.9,4.4,5.1,4.4c0.5,0,1.1,0,1.5,0l-0.5,2.5H246.8z"/>
	</g>
	<g>
		<path fill="#ED1C24" d="M469.7,815.3l2.2-15.1h2.6c0.7,15.1,6,18,10.1,18.3c4.4,0.5,8.9-1.5,11.5-5.1c2.9-4,3.7-8.4,1.8-11.6
			l-18.8-32.3c-2.6-4.3-3.4-15.8,4.8-20.5c5.3-2.9,10.1-5.4,17.4-5.4c10.8,0,15.2,1.7,20.5,8.4l-2.2,14.4h-2.6l-0.5-8.5
			c-1.2-7.4-5.8-12.6-11.8-12.1c-2.6,0.3-4.8,1.7-6.8,4.3c-1.1,2-2.6,4.8,0.5,9.9l16.3,26.7c2.7,4.2,2.9,7.4,2.9,10.9
			c0,10.9-13.3,24.2-30.8,24.4C478.6,821.9,475.2,819.6,469.7,815.3z"/>
	</g>
	<path fill="#ED1C24" d="M287.5,816l9-64.8c0.2-1.7-3.4-3.7-4.6-3.7h-2.6l0.4-2.9h35.6c11.6,0.7,23.5,2.9,23.2,20.6
		c-0.5,10.9-9.9,17.9-14.5,20.1c-3.5,1.8-8.7,3.3-13.1,3.3H315l-3.7,25.8c-0.5,2.2,0.7,4,3.7,4h3.7l-0.8,2.5H282l0.4-2.5
		C285.6,818.2,287.5,817.9,287.5,816z M320.8,785.7c1.9,0,3.7-0.7,4.1-3.2c0.3-1.5,3.3-24.6,4.4-30.4c0-3.3-1.9-4.5-4.8-4.5h-4.1
		l-5.1,38.2H320.8z"/>
	<g>
		<path fill="#ED1C24" d="M654.6,821.1l-17.4-62.6l-8.2,56.8c-0.3,2.2,0.5,3.2,2.2,3.2h4.1l-0.7,2.5h-15.9v-2.5h3.7
			c2.9,0,2.9-2.2,2.9-3.2l9.2-64.1c0.4-2.5-0.7-3.7-7.7-3.7l0.3-2.9h28.2l14.2,50.5l6.3-43.9c0-2.5-1.2-3.7-6.3-3.7l0.4-2.9h15.9
			l-0.3,2.9h-2.2c-2.6,0-3.7,1.2-4.1,3.7l-10.4,69.8H654.6z"/>
	</g>
	<g>
		<path fill="#ED1C24" d="M197.6,781.7h10.8c3,0,6-0.7,6.2-5.1l0.8-4.5h2.6l-3.4,22h-2.1l0.7-4.8c0.5-2.9-1.8-5.1-4.3-5.1h-11.2
			l-4.8,34.3h14.9h1.2c3.2-0.7,8.1-3.7,10.8-18.3h2.6l-2.9,20.9h-57.6l0.7-2.5h3.4c2.9,0,4.3-1.8,4.3-2.5l9.4-65.9
			c0-2.5-1.5-2.5-7.7-2.5l0.4-2.9h55.7l-2.2,15.3H223V758c0-4.5-0.4-10.4-4.7-10.4h-15.8L197.6,781.7z"/>
	</g>
	<g>
		<path fill="#ED1C24" d="M595.1,781.7h10.3c3.4,0,6-0.7,6.8-5.1l0.7-4.5h2.6l-3.3,22h-2.6l0.7-4.8c0.5-2.9-1.5-5.1-4.1-5.1h-11.5
			l-4.8,34.3h14.9h1.1c3.7-0.7,8.1-3.7,10.8-18.3h2.6l-3.3,20.9h-56.7l0.3-2.5h3.4c2.6,0,4.3-1.8,4.8-2.5l8.9-65.9
			c0-2.5-1.5-2.5-7.7-2.5l0.2-2.9h55.3l-2,15.3h-2.6V758c0-4.5-0.7-10.4-4.4-10.4h-15.8L595.1,781.7z"/>
	</g>
	<g>
		<path fill="#ED1C24" d="M517.7,815.3l2.2-15.1h2.7c0.2,15.1,5.5,18,9.5,18.3c4.8,0.5,9.4-1.5,11.9-5.1c2.6-4,3.4-8.4,1.7-11.6
			l-19.2-32.3c-2.2-4.3-3-15.8,4.8-20.5c5.3-2.9,10.1-5.4,17.8-5.4c10.5,0,15.3,1.7,20.1,8.4l-2.1,14.4h-2.7l-0.4-8.5
			c-1.2-7.4-5.5-12.6-11.6-12.1c-3,0.3-5.1,1.7-6.8,4.3c-0.9,2-2.9,4.8,0,9.9l16.8,26.7c2.6,4.2,2.9,7.4,2.9,10.9
			c0,10.9-13.8,24.9-31.2,24.4C526.2,821.9,522.8,819.6,517.7,815.3z"/>
	</g>
	<path fill="#ED1C24" d="M379.4,781.7c1.5,0,3.4-0.3,3.7-3.3l3.7-27.1c0.4-3.7-4.1-3.7-8.5-3.7l-4.8,34.1H379.4z M392,821.1
		c-2.2,0-4.8-1.5-4.8-2.5c-0.4-1-5.9-28.8-6.3-29.9c-0.7-1.5-1.5-3.7-2.9-3.7l-5.1-0.8l-3.7,30c-0.8,2.9,0.7,4.4,4.1,4.4h2.6
		l-0.8,2.5h-37.8l0.4-2.5h3.7c3,0,4.1-1.8,4.4-2.9l8.5-64.4c0.4-1.7-0.4-3.7-3.6-3.7h-3v-2.9h35.9c12.3,0,26,2.9,24.8,16.8
		c-1.8,13.9-15.4,19-17,19.5c-1.5,0.3-9.2,2.9-10.4,2.9c11.9,2.5,19.7,2.9,21.1,8.1c2,5.8,4.6,20.1,4.6,21.6
		c0.4,0.7,2.2,5.1,4.8,5.1h2.6l-0.8,2.5H392z"/>
	<g>
		<path fill="#ED1C24" d="M412.6,818.7c3,0.3,4.8-2,4.8-2.6l8.9-65.9c0-2.5-0.9-2.5-7.7-2.5l0.8-2.9h55.2l-2.1,15.3H470V758
			c0-4.5-0.5-10.4-4.6-10.4h-15.9l-4.4,34.1h10.4c3.4,0,6-0.7,6.7-5.1l0.7-4.5h2.6l-3.3,22h-2.3l0.5-4.8c0.3-2.9-1.4-5.1-4.1-5.1
			H445l-4.9,34.3h14.5h1.5c3.3-0.7,7.8-3.7,10.4-18.3h2.6l-3.4,20.9h-53.8L412.6,818.7z"/>
	</g>
</g>
</svg>
