<?xml version="1.0" encoding="utf-8"?>
<!-- Generator: Adobe Illustrator 18.1.1, SVG Export Plug-In . SVG Version: 6.00 Build 0)  -->
<!DOCTYPE svg PUBLIC "-//W3C//DTD SVG 1.1//EN" "http://www.w3.org/Graphics/SVG/1.1/DTD/svg11.dtd">
<svg version="1.1" id="Lager_1" xmlns="http://www.w3.org/2000/svg" xmlns:xlink="http://www.w3.org/1999/xlink" x="0px" y="0px"
	 viewBox="0 0 709.7 181.5" enable-background="new 0 0 709.7 181.5" xml:space="preserve">
<g>
	<g>
		<path fill="#E30613" d="M108.3,125.3c0,25.2-30.5,56.2-69.9,56.2c-18.2,0-26-5.7-38.4-15.7l5-34.7h6c1.5,34.7,13.5,41.4,22.7,42.2
			c10,1,20.2-3.5,26-11.7c6.7-9.2,8.2-19.2,4-26.7L21,60.4c-5.7-9.7-7.7-36.4,11-47.2C43.7,6.5,54.7,0.8,71.4,0.8
			c24.5,0,34.4,4,46.4,19.5l-5,33.2h-6l-1-19.7C103.1,16.7,92.6,4.5,79.1,6c-6,0.5-11,4-15.5,9.7c-2.5,4.5-6,11.2,1,22.7l36.9,61.7
			C107.3,109.8,108.3,117.1,108.3,125.3z"/>
	</g>
	<g>
		<path fill="#E30613" d="M108.6,180.6l0.8-5.9c9.7,0,13.5-1.8,13.5-5.9l20.6-151c0.5-4.1-0.3-8.7-10.4-8.7H127l1-6.6h81.5
			c26.7,0,54.5,6.6,53.2,47.9C262,76.2,240.1,92,229.4,97.3c-7.9,4.1-19.9,7.9-30.1,7.9h-13.2l-8.7,60.1c-0.8,5.1,1.5,9.4,8.7,9.4
			h8.4l-1.8,5.9H108.6z M198.8,9.2l-12,88.6l12.5,0.3c4.3,0,8.7-1.5,9.4-7.4c0.8-3.6,7.6-57.3,10.2-71.1c0-7.9-4.3-10.4-11-10.4
			H198.8z"/>
	</g>
	<g>
		<path fill="#E30613" d="M350.5,0c27,0,54.7,8.2,53.9,49.4c0,0-2.5,39.9-10.2,80.9c-5.5,29.2-22.5,37.4-32.9,42.7
			c-8.2,4-22,7.7-32.5,7.7H315c-27,0-54.7-8.2-53.9-49.2l10.5-71.4l1-7.2C275.3,29.5,294.3,13,304.3,8c8.2-4.2,22-7.7,32.2-7.7
			L350.5,0z M320.5,174.7h4.8c4.6,0,8.9-1.8,9.9-7.6c0.8-3.6,19.4-133.5,21.1-148c0-7.9-4.3-10.7-11.5-10.7h-4.8
			c-4.6,0-8.9,1.5-9.7,7.6c-1,3.6-18.6,134.2-21.4,148C307.8,170.9,313.6,174.7,320.5,174.7z"/>
	</g>
	<g>
		<path fill="#E30613" d="M565.5,180.6h-52.7c-5.1,0-7.4-3.6-7.4-5.9c-1-2.5-13.5-67.2-14.5-69.5c-1.8-3.6-1.3-10.2-7.9-10.2h-10.4
			l-8.9,69.5c-1.8,6.6,1.5,10.2,9.4,10.2h5.3l-1.3,5.9h-86.9l0.8-5.9h8.7c6.9,0,9.4-4.3,10.2-6.9l19.6-150c0.5-4.1-0.8-8.7-8.4-8.7
			h-6.9l1.5-6.6h81c28.3,0,60.4,6.6,56.8,39.2c-3.3,32.3-35.4,44.3-39,45.3c-3.3,1-21.1,6.6-23.7,6.6c27.3,5.9,44.6,6.6,48.1,18.8
			c4.3,13.8,10.7,46.9,10.7,50.2c0.8,1.8,5.1,12,11,12h5.9L565.5,180.6z M473.8,88.6h13.5c3.6,0,7.6-0.8,8.7-7.6l8.4-63.2
			c1.3-8.7-7.6-8.7-19.6-8.7L473.8,88.6z"/>
	</g>
	<g>
		<path fill="#E30613" d="M573.2,175h7.9c6.1,0,10.7-2.8,11.2-6.1L613.9,8.7h-14.8c-13.2,0-21.6,17.3-24.4,28l-5.6,18.1h-4.8
			l8.4-52.2h22.9h114.1l-6.1,52.2h-4.8L698.2,41c0-14.8-4.6-32.3-19.9-32.3h-11.5l-21.7,156.6c-0.8,5.4,1.5,9.4,8.7,9.4h7.6l-1,5.9
			h-88.1L573.2,175z"/>
	</g>
</g>
</svg>
